<svg width="15" height="15" viewBox="0 0 15 15" fill="none" xmlns="http://www.w3.org/2000/svg">
<g clip-path="url(#clip0)">
<path d="M13.81 2.70904C13.0336 1.95204 11.9681 1.53511 10.8097 1.53511C9.94389 1.53511 9.15092 1.78117 8.45284 2.2664C8.10059 2.51133 7.78141 2.81099 7.5 3.16074C7.2187 2.81109 6.89941 2.51133 6.54705 2.2664C5.84908 1.78117 5.05611 1.53511 4.19025 1.53511C3.03188 1.53511 1.96632 1.95204 1.18984 2.70904C0.42263 3.4572 0 4.4793 0 5.58719C0 6.72749 0.472755 7.77129 1.48773 8.87219C2.39571 9.85694 3.70068 10.8566 5.21187 12.0142C5.72788 12.4095 6.31279 12.8576 6.92013 13.3349C7.08057 13.4612 7.28645 13.5308 7.5 13.5308C7.71343 13.5308 7.91943 13.4612 8.07964 13.3351C8.68698 12.8577 9.27223 12.4094 9.78848 12.0139C11.2994 10.8565 12.6044 9.85694 13.5124 8.87208C14.5274 7.77129 15 6.72749 15 5.58709C15 4.4793 14.5774 3.4572 13.81 2.70904Z" fill="#C4C4C4"/>
</g>
<defs>
<clipPath id="clip0">
<rect width="15" height="13.4831" fill="white" transform="translate(0 0.797752)"/>
</clipPath>
</defs>
</svg>
